{
	"asset":{
		"generator":"Khronos glTF Blender I/O v4.2.60",
		"version":"2.0"
	},
	"scene":0,
	"scenes":[
		{
			"name":"Scene",
			"nodes":[
				26
			]
		}
	],
	"nodes":[
		{
			"name":"Hueso.009",
			"rotation":[
				-0.041141435503959656,
				0.004426523111760616,
				-0.019612014293670654,
				0.9989510774612427
			],
			"scale":[
				0.9999999403953552,
				1,
				0.9999998211860657
			],
			"translation":[
				1.4901161193847656e-08,
				0.6653890609741211,
				-1.4901161193847656e-08
			]
		},
		{
			"children":[
				0
			],
			"name":"Hueso.008",
			"rotation":[
				-0.05709242448210716,
				-0.1393815577030182,
				0.01718992553651333,
				0.988442063331604
			],
			"translation":[
				3.5390257835388184e-08,
				0.6890914440155029,
				1.862645149230957e-08
			]
		},
		{
			"children":[
				1
			],
			"name":"Hueso.007",
			"rotation":[
				-0.03624996542930603,
				6.247128476388752e-05,
				0.0733262151479721,
				0.9966490268707275
			],
			"scale":[
				0.9999999403953552,
				0.9999999403953552,
				0.9999998807907104
			],
			"translation":[
				1.0244548320770264e-08,
				0.801591694355011,
				-1.0244548320770264e-08
			]
		},
		{
			"children":[
				2
			],
			"name":"Hueso.006",
			"rotation":[
				0.013569376431405544,
				4.059476123075001e-05,
				-0.04259499907493591,
				0.9990003108978271
			],
			"scale":[
				0.9999999403953552,
				1,
				1
			],
			"translation":[
				-5.3318217396736145e-08,
				1.1188998222351074,
				3.304194251541048e-08
			]
		},
		{
			"children":[
				3
			],
			"name":"Hueso.002",
			"rotation":[
				-5.144822807778837e-06,
				-2.2140154669614276e-06,
				-0.015046781860291958,
				0.9998868107795715
			],
			"scale":[
				0.9999999403953552,
				0.9999999403953552,
				1
			],
			"translation":[
				-8.172355592250824e-08,
				0.7324245572090149,
				-4.086177796125412e-08
			]
		},
		{
			"name":"Hueso.005",
			"rotation":[
				-0.0817815288901329,
				-0.006808453239500523,
				-0.051968157291412354,
				0.9952712059020996
			],
			"translation":[
				-5.122274160385132e-09,
				0.5177711248397827,
				-2.0256265997886658e-08
			]
		},
		{
			"children":[
				5
			],
			"name":"Hueso.004",
			"rotation":[
				5.952367791905999e-05,
				1.7549965036778303e-08,
				-0.006239448674023151,
				0.9999805688858032
			],
			"scale":[
				1,
				1.0000001192092896,
				1.0000001192092896
			],
			"translation":[
				-5.727633833885193e-08,
				1.4482604265213013,
				-4.0745362639427185e-09
			]
		},
		{
			"children":[
				6
			],
			"name":"Hueso.003",
			"rotation":[
				-0.004944497253745794,
				7.51221741666086e-05,
				0.5045443773269653,
				0.8633716106414795
			],
			"translation":[
				-8.172355592250824e-08,
				0.7324245572090149,
				-4.086177796125412e-08
			]
		},
		{
			"name":"Hueso.014",
			"rotation":[
				-0.07729475945234299,
				-0.001827787491492927,
				-0.04348912462592125,
				0.9960576891899109
			],
			"scale":[
				0.9999999403953552,
				0.9999998807907104,
				0.9999998807907104
			],
			"translation":[
				1.6763806343078613e-08,
				0.5276375412940979,
				8.847564458847046e-09
			]
		},
		{
			"children":[
				8
			],
			"name":"Hueso.013",
			"rotation":[
				-0.04448413476347923,
				0.0004010573902633041,
				-0.015574087388813496,
				0.9988886117935181
			],
			"scale":[
				1.0000001192092896,
				1,
				1
			],
			"translation":[
				2.2351741790771484e-08,
				0.6913570761680603,
				-1.7695128917694092e-08
			]
		},
		{
			"children":[
				9
			],
			"name":"Hueso.012",
			"rotation":[
				-0.013063016347587109,
				0.006814804393798113,
				-0.01500406302511692,
				0.9997788667678833
			],
			"translation":[
				5.587935447692871e-09,
				0.7750252485275269,
				6.845220923423767e-08
			]
		},
		{
			"children":[
				10
			],
			"name":"Hueso.011",
			"rotation":[
				0.08418706059455872,
				1.8019230552113186e-08,
				-0.16900254786014557,
				0.9820135831832886
			],
			"scale":[
				1,
				1,
				0.9999999403953552
			],
			"translation":[
				-1.3969838619232178e-08,
				1.166077971458435,
				-1.7229467630386353e-08
			]
		},
		{
			"children":[
				11
			],
			"name":"Hueso.010",
			"rotation":[
				-0.04769684001803398,
				4.001289198640734e-05,
				0.21512675285339355,
				0.9754207134246826
			],
			"scale":[
				1,
				0.9999997615814209,
				1
			],
			"translation":[
				-8.172355592250824e-08,
				0.7324245572090149,
				-4.086177796125412e-08
			]
		},
		{
			"name":"Hueso.019",
			"rotation":[
				-0.13910730183124542,
				-0.202665776014328,
				0.035745881497859955,
				0.9686578512191772
			],
			"scale":[
				1,
				1,
				0.9999999403953552
			],
			"translation":[
				3.3993273973464966e-08,
				0.6594635248184204,
				2.7939677238464355e-08
			]
		},
		{
			"children":[
				13
			],
			"name":"Hueso.018",
			"rotation":[
				-0.06743984669446945,
				-0.00018517444550525397,
				0.015048288740217686,
				0.9976098537445068
			],
			"scale":[
				1,
				0.9999998211860657,
				0.9999999403953552
			],
			"translation":[
				-2.60770320892334e-08,
				0.694934606552124,
				-3.4458935260772705e-08
			]
		},
		{
			"children":[
				14
			],
			"name":"Hueso.017",
			"rotation":[
				-0.03647610917687416,
				0.0007344188052229583,
				0.11743061989545822,
				0.9924107193946838
			],
			"scale":[
				1,
				0.9999999403953552,
				1.0000001192092896
			],
			"translation":[
				1.9278377294540405e-07,
				0.9847695827484131,
				-4.7497451305389404e-08
			]
		},
		{
			"children":[
				15
			],
			"name":"Hueso.016",
			"rotation":[
				0.0314265713095665,
				-0.04196413978934288,
				0.1023891270160675,
				0.9933618903160095
			],
			"scale":[
				1,
				1,
				0.9999999403953552
			],
			"translation":[
				6.705522537231445e-08,
				1.1017030477523804,
				3.259629011154175e-09
			]
		},
		{
			"children":[
				16
			],
			"name":"Hueso.015",
			"rotation":[
				0.005615967325866222,
				0.045328933745622635,
				-0.2476567029953003,
				0.9677705764770508
			],
			"scale":[
				1,
				0.9999999403953552,
				1
			],
			"translation":[
				-8.172355592250824e-08,
				0.7324245572090149,
				-4.086177796125412e-08
			]
		},
		{
			"name":"Hueso.024",
			"rotation":[
				-0.15590322017669678,
				0.22076593339443207,
				-0.036998555064201355,
				0.9620746970176697
			],
			"scale":[
				1,
				1.0000001192092896,
				1
			],
			"translation":[
				5.9138983488082886e-08,
				0.48555490374565125,
				-1.4901161193847656e-08
			]
		},
		{
			"children":[
				18
			],
			"name":"Hueso.023",
			"rotation":[
				-0.03268224000930786,
				-0.008782357908785343,
				-0.04245500639081001,
				0.998525083065033
			],
			"scale":[
				0.9999998807907104,
				0.9999997615814209,
				0.9999998807907104
			],
			"translation":[
				1.2712553143501282e-07,
				0.5026978254318237,
				-3.725290298461914e-09
			]
		},
		{
			"children":[
				19
			],
			"name":"Hueso.022",
			"rotation":[
				-0.09710539132356644,
				0.0044507612474262714,
				-0.0252898670732975,
				0.9949427843093872
			],
			"translation":[
				-1.7532147467136383e-07,
				0.6774581670761108,
				-4.0978193283081055e-08
			]
		},
		{
			"children":[
				20
			],
			"name":"Hueso.021",
			"rotation":[
				0.07633496820926666,
				0.0029333853162825108,
				0.05453840643167496,
				0.9955852627754211
			],
			"scale":[
				1,
				1,
				0.9999999403953552
			],
			"translation":[
				2.2724270820617676e-07,
				1.2526113986968994,
				4.0745362639427185e-08
			]
		},
		{
			"children":[
				21
			],
			"name":"Hueso.020",
			"rotation":[
				-0.003942395560443401,
				-5.2613620937336236e-05,
				-0.36273619532585144,
				0.9318835139274597
			],
			"scale":[
				1.0000001192092896,
				1.0000001192092896,
				1
			],
			"translation":[
				-8.172355592250824e-08,
				0.7324245572090149,
				-4.086177796125412e-08
			]
		},
		{
			"children":[
				4,
				7,
				12,
				17,
				22
			],
			"name":"Hueso.001",
			"rotation":[
				-0.0063069588504731655,
				1.556900656396465e-06,
				0.002731443615630269,
				0.999976396560669
			],
			"scale":[
				1,
				0.9999999403953552,
				1
			],
			"translation":[
				-5.2765244618058205e-08,
				2.5487473011016846,
				-4.656612873077393e-10
			]
		},
		{
			"children":[
				23
			],
			"name":"Hueso",
			"rotation":[
				-0.7021825909614563,
				0.0030745775438845158,
				-0.00302021368406713,
				0.7119839191436768
			],
			"translation":[
				0.7045665979385376,
				0.38346847891807556,
				4.382696151733398
			]
		},
		{
			"mesh":0,
			"name":"Esfera.014",
			"skin":0
		},
		{
			"children":[
				25,
				24
			],
			"name":"Esqueleto",
			"translation":[
				0.09826896339654922,
				0,
				0
			]
		}
	],
	"meshes":[
		{
			"name":"Esfera.001",
			"primitives":[
				{
					"attributes":{
						"POSITION":0,
						"NORMAL":1,
						"TEXCOORD_0":2,
						"JOINTS_0":3,
						"WEIGHTS_0":4
					},
					"indices":5
				}
			]
		}
	],
	"skins":[
		{
			"inverseBindMatrices":6,
			"joints":[
				24,
				23,
				4,
				3,
				2,
				1,
				0,
				7,
				6,
				5,
				12,
				11,
				10,
				9,
				8,
				17,
				16,
				15,
				14,
				13,
				22,
				21,
				20,
				19,
				18
			],
			"name":"Esqueleto"
		}
	],
	"accessors":[
		{
			"bufferView":0,
			"componentType":5126,
			"count":19384,
			"max":[
				3.1589267253875732,
				1.215521216392517,
				4.6545186042785645
			],
			"min":[
				-1.743506908416748,
				-0.42473727464675903,
				-2.865201711654663
			],
			"type":"VEC3"
		},
		{
			"bufferView":1,
			"componentType":5126,
			"count":19384,
			"type":"VEC3"
		},
		{
			"bufferView":2,
			"componentType":5126,
			"count":19384,
			"type":"VEC2"
		},
		{
			"bufferView":3,
			"componentType":5121,
			"count":19384,
			"type":"VEC4"
		},
		{
			"bufferView":4,
			"componentType":5126,
			"count":19384,
			"type":"VEC4"
		},
		{
			"bufferView":5,
			"componentType":5123,
			"count":97896,
			"type":"SCALAR"
		},
		{
			"bufferView":6,
			"componentType":5126,
			"count":25,
			"type":"MAT4"
		}
	],
	"bufferViews":[
		{
			"buffer":0,
			"byteLength":232608,
			"byteOffset":0,
			"target":34962
		},
		{
			"buffer":0,
			"byteLength":232608,
			"byteOffset":232608,
			"target":34962
		},
		{
			"buffer":0,
			"byteLength":155072,
			"byteOffset":465216,
			"target":34962
		},
		{
			"buffer":0,
			"byteLength":77536,
			"byteOffset":620288,
			"target":34962
		},
		{
			"buffer":0,
			"byteLength":310144,
			"byteOffset":697824,
			"target":34962
		},
		{
			"buffer":0,
			"byteLength":195792,
			"byteOffset":1007968,
			"target":34963
		},
		{
			"buffer":0,
			"byteLength":1600,
			"byteOffset":1203760
		}
	],
	"buffers":[
		{
			"byteLength":1205360,
			"uri":"sin_nombre3.bin"
		}
	]
}
